<svg width="91" height="24" viewBox="0 0 91 24" fill="none" xmlns="http://www.w3.org/2000/svg">
<g clip-path="url(#clip0_1028_3523)">
<path d="M22.3829 24C21.0704 23.8943 20.4674 23.859 19.758 23.859C19.0485 23.859 18.481 23.8943 17.3104 24C16.7074 22.0264 15.5368 18.7841 14.4371 16.0705C12.9473 16 11.9541 16 10.3933 16C8.69066 16 7.6265 16.0352 5.92384 16.0705C4.43401 19.8767 4.3276 20.1233 3.08607 24C2.44757 23.8943 2.12833 23.859 1.66719 23.859C1.24152 23.859 0.886802 23.8943 0 24C1.70266 20.6872 7.76839 6.837 10.4643 0C10.9609 0.0704846 11.1737 0.0704846 11.493 0.0704846C11.8122 0.0704846 11.9896 0.0704846 12.3443 0C16.8492 11.1718 20.5383 20.0529 22.3829 24ZM6.7397 14.2026C8.54877 14.2379 9.22274 14.2379 10.3933 14.2379C11.5639 14.2379 11.9896 14.2379 13.6922 14.2026C12.6281 11.3833 11.6703 9.05727 10.2869 5.81498C7.83933 11.4537 7.80386 11.489 6.7397 14.2026Z" fill="#3F291D"/>
<path d="M31.96 12.8632V13.8852C31.96 17.4799 32.1374 21.5328 32.3857 23.9998C31.2861 23.894 30.683 23.8588 29.7962 23.8588C28.9094 23.8588 28.4128 23.894 27.4551 23.9998C27.7034 20.9337 27.8098 16.4932 27.8098 10.6429C27.8098 6.34339 27.6679 2.53722 27.4551 0.211227C28.6966 0.316954 29.3706 0.352197 30.4347 0.352197C31.0732 0.352197 32.031 0.316954 33.2016 0.281712C34.4076 0.24647 35.3654 0.211227 36.0748 0.211227C38.345 0.211227 39.9413 0.56365 41.1473 1.40947C42.5662 2.36101 43.4175 4.01739 43.4175 5.88524C43.4175 8.07026 42.3179 9.97334 40.4024 11.1011C39.5511 11.5945 38.6288 11.9469 37.1744 12.2993C41.9277 19.0659 42.8145 20.3346 45.5813 23.9998C44.127 23.894 43.453 23.8588 42.6017 23.8588C41.7503 23.8588 41.1473 23.894 40.0477 23.9998C37.5292 19.9117 34.2657 15.013 32.6695 12.8632H31.96ZM33.308 11.524C36.7488 11.524 38.8771 9.55043 38.8771 6.34339C38.8771 3.524 37.139 1.86761 34.2657 1.86761C33.9465 1.86761 33.3789 1.90286 32.1374 2.00858C32.031 3.524 31.96 7.64735 31.96 11.4535C32.5276 11.4888 32.9178 11.524 33.308 11.524Z" fill="#3F291D"/>
<path d="M70.6602 24C69.3478 23.8943 68.7447 23.859 68.0353 23.859C67.3259 23.859 66.7583 23.8943 65.5877 24C64.9847 22.0264 63.8141 18.7841 62.7145 16.0705C61.2247 16 60.2314 16 58.6707 16C56.968 16 55.9038 16.0352 54.2012 16.0705C52.7114 19.8767 52.6049 20.1233 51.3634 24C50.7249 23.8943 50.4057 23.859 49.9445 23.859C49.5189 23.859 49.1641 23.8943 48.2773 24C49.98 20.6872 56.0457 6.837 58.7416 0C59.2382 0.0704846 59.4511 0.0704846 59.7703 0.0704846C60.0895 0.0704846 60.2669 0.0704846 60.6216 0C65.1266 11.1718 68.8157 20.0529 70.6602 24ZM55.017 14.2026C56.8261 14.2379 57.5001 14.2379 58.6707 14.2379C59.8412 14.2379 60.2669 14.2379 61.9696 14.2026C60.9054 11.3833 59.9477 9.05727 58.5642 5.81498C56.1167 11.4537 56.0812 11.489 55.017 14.2026Z" fill="#3F291D"/>
<path d="M78.535 13.7795C77.861 12.6518 77.6837 12.3346 76.4421 10.1496C75.9101 9.16277 75.3425 8.21123 74.7749 7.22444C74.0655 5.92048 73.5689 5.03942 72.8949 3.87643C71.547 1.47995 71.3342 1.12753 70.7666 0.211227C72.0791 0.316954 72.7176 0.352197 73.4625 0.352197C74.2074 0.352197 74.8459 0.316954 76.1938 0.211227C76.7969 1.83237 79.9893 8.24647 81.7275 11.383C84.1751 7.08347 86.4807 2.57246 87.474 0.211227C88.1479 0.316954 88.5381 0.352197 89.0347 0.352197C89.5668 0.352197 89.9215 0.316954 90.6664 0.211227C88.68 3.10109 84.3524 10.502 82.8271 13.6033C82.7916 14.5196 82.7916 15.013 82.7916 15.5064C82.7916 19.1716 82.8981 22.3786 83.1109 23.9998C81.7984 23.894 81.2309 23.8588 80.5569 23.8588C79.9184 23.8588 79.3508 23.894 78.1448 23.9998C78.3931 22.0614 78.535 18.4667 78.535 15.2597V13.7795Z" fill="#3F291D"/>
</g>
<defs>
<clipPath id="clip0_1028_3523">
<rect width="90.6667" height="24" fill="white"/>
</clipPath>
</defs>
</svg>
